<svg width="23" height="23" viewBox="0 0 23 23" fill="none" xmlns="http://www.w3.org/2000/svg">
<path d="M11.5 18.8182C10.5388 18.8195 9.58672 18.6309 8.69861 18.2631C7.81051 17.8953 7.00385 17.3556 6.325 16.675L11.5 11.5V4.18182C12.461 4.18182 13.4127 4.37111 14.3005 4.73889C15.1884 5.10666 15.9952 5.64571 16.6747 6.32527C17.3543 7.00483 17.8933 7.81158 18.2611 8.69946C18.6289 9.58734 18.8182 10.539 18.8182 11.5C18.8182 12.461 18.6289 13.4127 18.2611 14.3006C17.8933 15.1884 17.3543 15.9952 16.6747 16.6747C15.9952 17.3543 15.1884 17.8934 14.3005 18.2611C13.4127 18.6289 12.461 18.8182 11.5 18.8182Z" fill="#510FAD"/>
<path fill-rule="evenodd" clip-rule="evenodd" d="M23 11.5C23 17.8511 17.8511 23 11.5 23C5.14886 23 0 17.8511 0 11.5C0 5.14886 5.14886 0 11.5 0C17.8511 0 23 5.14886 23 11.5ZM20.9091 11.5C20.9091 12.7356 20.6657 13.9591 20.1929 15.1007C19.72 16.2423 19.0269 17.2795 18.1532 18.1532C17.2795 19.0269 16.2423 19.72 15.1007 20.1929C13.9591 20.6657 12.7356 20.9091 11.5 20.9091C10.2644 20.9091 9.04086 20.6657 7.8993 20.1929C6.75773 19.72 5.72048 19.0269 4.84677 18.1532C3.97305 17.2795 3.27998 16.2423 2.80713 15.1007C2.33428 13.9591 2.09091 12.7356 2.09091 11.5C2.09091 9.00455 3.08222 6.61131 4.84677 4.84677C6.61131 3.08222 9.00455 2.09091 11.5 2.09091C13.9954 2.09091 16.3887 3.08222 18.1532 4.84677C19.9178 6.61131 20.9091 9.00455 20.9091 11.5Z" fill="#510FAD"/>
</svg>
