<svg width="26" height="26" viewBox="0 0 26 26" fill="none" xmlns="http://www.w3.org/2000/svg">
<path d="M15.3437 25.5H10.6562C10.3437 25.5 10.0729 25.3958 9.84373 25.1875C9.61456 24.9792 9.47914 24.7188 9.43748 24.4062L9.06248 21.5C8.79165 21.3958 8.53664 21.2708 8.29748 21.125C8.05748 20.9792 7.8229 20.8229 7.59373 20.6562L4.87498 21.7812C4.58331 21.8854 4.29165 21.8958 3.99998 21.8125C3.70831 21.7292 3.47915 21.5521 3.31248 21.2812L0.999979 17.25C0.833313 16.9792 0.781229 16.6875 0.843729 16.375C0.906229 16.0625 1.06248 15.8125 1.31248 15.625L3.65623 13.8438C3.6354 13.6979 3.62498 13.5571 3.62498 13.4212V12.5775C3.62498 12.4425 3.6354 12.3021 3.65623 12.1562L1.31248 10.375C1.06248 10.1875 0.906229 9.9375 0.843729 9.625C0.781229 9.3125 0.833313 9.02083 0.999979 8.75L3.31248 4.71875C3.45831 4.42708 3.68206 4.24458 3.98373 4.17125C4.28623 4.09875 4.58331 4.11458 4.87498 4.21875L7.59373 5.34375C7.8229 5.17708 8.06248 5.02083 8.31248 4.875C8.56248 4.72917 8.81248 4.60417 9.06248 4.5L9.43748 1.59375C9.47914 1.28125 9.61456 1.02083 9.84373 0.8125C10.0729 0.604167 10.3437 0.5 10.6562 0.5H15.3437C15.6562 0.5 15.9271 0.604167 16.1562 0.8125C16.3854 1.02083 16.5208 1.28125 16.5625 1.59375L16.9375 4.5C17.2083 4.60417 17.4637 4.72917 17.7037 4.875C17.9429 5.02083 18.1771 5.17708 18.4062 5.34375L21.125 4.21875C21.4166 4.11458 21.7083 4.10417 22 4.1875C22.2916 4.27083 22.5208 4.44792 22.6875 4.71875L25 8.75C25.1666 9.02083 25.2187 9.3125 25.1562 9.625C25.0937 9.9375 24.9375 10.1875 24.6875 10.375L22.3437 12.1562C22.3646 12.3021 22.375 12.4425 22.375 12.5775V13.4212C22.375 13.5571 22.3541 13.6979 22.3125 13.8438L24.6562 15.625C24.9062 15.8125 25.0625 16.0625 25.125 16.375C25.1875 16.6875 25.1354 16.9792 24.9687 17.25L22.6562 21.25C22.4896 21.5208 22.2554 21.7033 21.9537 21.7975C21.6512 21.8908 21.3541 21.8854 21.0625 21.7812L18.4062 20.6562C18.1771 20.8229 17.9375 20.9792 17.6875 21.125C17.4375 21.2708 17.1875 21.3958 16.9375 21.5L16.5625 24.4062C16.5208 24.7188 16.3854 24.9792 16.1562 25.1875C15.9271 25.3958 15.6562 25.5 15.3437 25.5ZM13.0625 17.375C14.2708 17.375 15.3021 16.9479 16.1562 16.0938C17.0104 15.2396 17.4375 14.2083 17.4375 13C17.4375 11.7917 17.0104 10.7604 16.1562 9.90625C15.3021 9.05208 14.2708 8.625 13.0625 8.625C11.8333 8.625 10.7966 9.05208 9.95248 9.90625C9.10915 10.7604 8.68748 11.7917 8.68748 13C8.68748 14.2083 9.10915 15.2396 9.95248 16.0938C10.7966 16.9479 11.8333 17.375 13.0625 17.375ZM13.0625 14.875C12.5416 14.875 12.0991 14.6925 11.735 14.3275C11.37 13.9633 11.1875 13.5208 11.1875 13C11.1875 12.4792 11.37 12.0367 11.735 11.6725C12.0991 11.3075 12.5416 11.125 13.0625 11.125C13.5833 11.125 14.0262 11.3075 14.3912 11.6725C14.7554 12.0367 14.9375 12.4792 14.9375 13C14.9375 13.5208 14.7554 13.9633 14.3912 14.3275C14.0262 14.6925 13.5833 14.875 13.0625 14.875ZM11.75 23H14.2187L14.6562 19.6875C15.3021 19.5208 15.9012 19.2758 16.4537 18.9525C17.0054 18.63 17.5104 18.2396 17.9687 17.7812L21.0625 19.0625L22.2812 16.9375L19.5937 14.9062C19.6979 14.6146 19.7708 14.3071 19.8125 13.9837C19.8541 13.6612 19.875 13.3333 19.875 13C19.875 12.6667 19.8541 12.3383 19.8125 12.015C19.7708 11.6925 19.6979 11.3854 19.5937 11.0938L22.2812 9.0625L21.0625 6.9375L17.9687 8.25C17.5104 7.77083 17.0054 7.36958 16.4537 7.04625C15.9012 6.72375 15.3021 6.47917 14.6562 6.3125L14.25 3H11.7812L11.3437 6.3125C10.6979 6.47917 10.0991 6.72375 9.54748 7.04625C8.99498 7.36958 8.48956 7.76042 8.03123 8.21875L4.93748 6.9375L3.71873 9.0625L6.40623 11.0625C6.30206 11.375 6.22915 11.6875 6.18748 12C6.14581 12.3125 6.12498 12.6458 6.12498 13C6.12498 13.3333 6.14581 13.6562 6.18748 13.9688C6.22915 14.2812 6.30206 14.5938 6.40623 14.9062L3.71873 16.9375L4.93748 19.0625L8.03123 17.75C8.48956 18.2292 8.99498 18.63 9.54748 18.9525C10.0991 19.2758 10.6979 19.5208 11.3437 19.6875L11.75 23Z" fill="#510FAD"/>
</svg>
